<svg version="1" xmlns="http://www.w3.org/2000/svg" width="638.667" height="638.667" viewBox="0 0 479.000000 479.000000"><path d="M10.8 24c0 3-.2 6.6-.3 8-.2 1.4-.6 6.8-1 12s-.8 11.7-1.1 14.5c-.2 2.7-.6 9-.9 14-.3 4.9-.8 10.8-1 13-.2 2.2-.6 8.3-1 13.5-.3 5.2-.8 12-1 15-.3 3-.7 9.1-1 13.5-.3 4.4-.7 10.2-1 13-.2 2.7-.7 9.3-1 14.5-.4 5.2-.8 11.7-1 14.4-.2 2.8.4 7.1 1.5 10.5 1.8 5.3 14.8 43.1 24.7 71.6 2.4 7.1 4.8 14.1 5.3 15.5.4 1.4 5 14.4 10 29 5.1 14.6 9.6 28.1 10.2 30 .6 1.9 1.3 3.9 1.6 4.5.4.5.7 1.4.8 2 .1.5 3.7 10.9 7.9 23s9.2 26.7 11.2 32.5c1.9 5.8 3.9 10.9 4.3 11.3.6.7 16.3 8.4 50 24.4 14.6 6.9 31.3 14.9 56 26.7l19.5 9.4 2.1-2.4c1.1-1.3 4.7-5.2 8-8.7 3.2-3.5 10.4-11.1 15.8-17l10-10.7 4.5 4.9c5.3 5.5 12.3 13.2 23 25 4.1 4.4 8 8.1 8.7 8.1.7 0 10.6-4.5 21.9-10 11.4-5.5 20.9-10 21-10 .1 0 8.3-3.9 18.1-8.6 9.9-4.7 20.6-9.9 23.9-11.4 9.1-4.2 39.9-19.1 40.3-19.4.2-.3 11.4-32 13.2-37.6.4-1.4 4.9-14.4 10-29 5-14.6 11.8-34.2 15-43.5 5.2-15.3 14.6-42.5 33-96 3.5-9.9 6.3-19.1 6.3-20.5 0-2.5-1.2-21.6-1.8-28-.2-1.9-.6-7.6-.9-12.5-.4-5-.8-11.5-1.1-14.5-.2-3-.7-9.3-1-14-.9-13.3-1.5-21-2-27.5-.5-6.7-1.2-17.2-2-28.5-1.6-22.9-2-27.9-2.6-28.4-.2-.2-5.8 6.4-12.4 14.6-6.6 8.3-12.5 15.6-13 16.2-.6.6-7.8 9.4-15.9 19.6-8.2 10.2-16.4 20.3-18.2 22.5-1.7 2.2-9.4 11.7-17 21.1-7.7 9.5-18.4 22.7-23.9 29.5-5.5 6.8-15.8 19.6-22.9 28.4-23 28.4-41.7 51.5-58.6 72.4-9.1 11.2-17.6 21.8-19 23.6-1.4 1.8-7.8 9.8-14.3 17.8-11.2 13.8-13.6 15.8-15 12.4-.3-.7-5-6.8-10.6-13.7-5.6-6.9-10.7-13.2-11.4-14-7.3-9.1-35.1-43.4-50.1-62-10.4-12.9-21.7-26.9-25.1-31-3.3-4.1-11.7-14.5-18.5-23-6.9-8.5-12.7-15.7-13-16-.3-.3-8-9.7-17-21-18.5-23.1-63.2-78.4-65.8-81.5-.9-1.1-3.5-4.3-5.7-7-2.2-2.8-5-6.1-6.2-7.5L11 18.5l-.2 5.5zm358.5 259.7c-5.9 11.3-11.1 21-13.3 24.8-1 1.6-4.1 7.5-7 13-13.3 24.9-36.1 67-36.8 67.7-.6.6-20-22.5-20.5-24.4-.2-.6 8.6-10.4 19.3-21.8 1.4-1.5 6.4-6.9 11.1-12.1 4.8-5.2 9.7-10.6 11-12 1.3-1.4 6.7-7.2 11.9-12.9s10.6-11.5 12-13c1.4-1.4 5.6-6.1 9.4-10.3 3.9-4.2 7.1-7.7 7.3-7.7.1 0-1.8 3.9-4.4 8.7zm-256.8-.8c3.3 3.6 10.9 11.9 16.9 18.4 6 6.5 11.8 12.8 12.9 14 1.7 2 16.8 18.5 22.7 24.8 15.5 16.6 21.6 23.3 21.8 24 .3.8-8 11.8-13 17.3-1 1.1-2.8 3.5-4.1 5.3-1.2 1.8-2.4 3.3-2.7 3.3-.5 0-3.2-5-16.3-29.5-35.6-66.3-41.4-77-43.9-81.3-3.1-5-.9-3.6 5.7 3.7z"/></svg>